<svg width="1802" height="526" viewBox="0 0 1802 526" fill="none" xmlns="http://www.w3.org/2000/svg">
<mask id="path-1-outside-1_715_17665" maskUnits="userSpaceOnUse" x="5" y="95" width="717" height="335" fill="black">
<rect fill="white" x="5" y="95" width="717" height="335"/>
<path d="M244.2 202.28C237.16 189.373 227.48 179.547 215.16 172.8C202.84 166.053 188.467 162.68 172.04 162.68C153.853 162.68 137.72 166.787 123.64 175C109.56 183.213 98.56 194.947 90.64 210.2C82.72 225.453 78.76 243.053 78.76 263C78.76 283.533 82.72 301.427 90.64 316.68C98.8533 331.933 110.147 343.667 124.52 351.88C138.893 360.093 155.613 364.2 174.68 364.2C198.147 364.2 217.36 358.04 232.32 345.72C247.28 333.107 257.107 315.653 261.8 293.36H156.2V246.28H322.52V299.96C318.413 321.373 309.613 341.173 296.12 359.36C282.627 377.547 265.173 392.213 243.76 403.36C222.64 414.213 198.88 419.64 172.48 419.64C142.853 419.64 116.013 413.04 91.96 399.84C68.2 386.347 49.4267 367.72 35.64 343.96C22.1467 320.2 15.4 293.213 15.4 263C15.4 232.787 22.1467 205.8 35.64 182.04C49.4267 157.987 68.2 139.36 91.96 126.16C116.013 112.667 142.707 105.92 172.04 105.92C206.653 105.92 236.72 114.427 262.24 131.44C287.76 148.16 305.36 171.773 315.04 202.28H244.2ZM526.494 417L458.734 297.32H429.694V417H368.094V109.88H483.374C507.134 109.88 527.374 114.133 544.094 122.64C560.814 130.853 573.281 142.147 581.494 156.52C590.001 170.6 594.254 186.44 594.254 204.04C594.254 224.28 588.388 242.613 576.654 259.04C564.921 275.173 547.468 286.32 524.294 292.48L597.774 417H526.494ZM429.694 251.12H481.174C497.894 251.12 510.361 247.16 518.574 239.24C526.788 231.027 530.894 219.733 530.894 205.36C530.894 191.28 526.788 180.427 518.574 172.8C510.361 164.88 497.894 160.92 481.174 160.92H429.694V251.12ZM711.569 109.88V417H649.969V109.88H711.569Z"/>
</mask>
<path d="M244.2 202.28C237.16 189.373 227.48 179.547 215.16 172.8C202.84 166.053 188.467 162.68 172.04 162.68C153.853 162.68 137.72 166.787 123.64 175C109.56 183.213 98.56 194.947 90.64 210.2C82.72 225.453 78.76 243.053 78.76 263C78.76 283.533 82.72 301.427 90.64 316.68C98.8533 331.933 110.147 343.667 124.52 351.88C138.893 360.093 155.613 364.2 174.68 364.2C198.147 364.2 217.36 358.04 232.32 345.72C247.28 333.107 257.107 315.653 261.8 293.36H156.2V246.28H322.52V299.96C318.413 321.373 309.613 341.173 296.12 359.36C282.627 377.547 265.173 392.213 243.76 403.36C222.64 414.213 198.88 419.64 172.48 419.64C142.853 419.64 116.013 413.04 91.96 399.84C68.2 386.347 49.4267 367.72 35.64 343.96C22.1467 320.2 15.4 293.213 15.4 263C15.4 232.787 22.1467 205.8 35.64 182.04C49.4267 157.987 68.2 139.36 91.96 126.16C116.013 112.667 142.707 105.92 172.04 105.92C206.653 105.92 236.72 114.427 262.24 131.44C287.76 148.16 305.36 171.773 315.04 202.28H244.2ZM526.494 417L458.734 297.32H429.694V417H368.094V109.88H483.374C507.134 109.88 527.374 114.133 544.094 122.64C560.814 130.853 573.281 142.147 581.494 156.52C590.001 170.6 594.254 186.44 594.254 204.04C594.254 224.28 588.388 242.613 576.654 259.04C564.921 275.173 547.468 286.32 524.294 292.48L597.774 417H526.494ZM429.694 251.12H481.174C497.894 251.12 510.361 247.16 518.574 239.24C526.788 231.027 530.894 219.733 530.894 205.36C530.894 191.28 526.788 180.427 518.574 172.8C510.361 164.88 497.894 160.92 481.174 160.92H429.694V251.12ZM711.569 109.88V417H649.969V109.88H711.569Z" fill="#3B3B3B"/>
<path d="M244.2 202.28L235.421 207.069L238.264 212.28H244.2V202.28ZM90.64 210.2L81.765 205.592L81.765 205.592L90.64 210.2ZM90.64 316.68L81.765 321.288L81.7997 321.355L81.8353 321.421L90.64 316.68ZM124.52 351.88L119.559 360.562L119.559 360.562L124.52 351.88ZM232.32 345.72L238.677 353.439L238.722 353.403L238.766 353.365L232.32 345.72ZM261.8 293.36L271.586 295.42L274.124 283.36H261.8V293.36ZM156.2 293.36H146.2V303.36H156.2V293.36ZM156.2 246.28V236.28H146.2V246.28H156.2ZM322.52 246.28H332.52V236.28H322.52V246.28ZM322.52 299.96L332.341 301.843L332.52 300.91V299.96H322.52ZM296.12 359.36L288.089 353.402L288.089 353.402L296.12 359.36ZM243.76 403.36L248.331 412.254L248.354 412.242L248.377 412.23L243.76 403.36ZM91.96 399.84L87.0218 408.536L87.0851 408.572L87.149 408.607L91.96 399.84ZM35.64 343.96L26.9444 348.898L26.9673 348.939L26.9906 348.979L35.64 343.96ZM35.64 182.04L26.9641 177.067L26.9542 177.084L26.9444 177.102L35.64 182.04ZM91.96 126.16L96.8164 134.902L96.8345 134.892L96.8525 134.881L91.96 126.16ZM262.24 131.44L256.693 139.76L256.726 139.783L256.76 139.805L262.24 131.44ZM315.04 202.28V212.28H328.704L324.572 199.256L315.04 202.28ZM252.979 197.491C245.067 182.987 234.043 171.739 219.963 164.029L210.357 181.571C220.917 187.354 229.253 195.76 235.421 207.069L252.979 197.491ZM219.963 164.029C205.939 156.349 189.86 152.68 172.04 152.68V172.68C187.074 172.68 199.741 175.758 210.357 181.571L219.963 164.029ZM172.04 152.68C152.293 152.68 134.382 157.157 118.601 166.362L128.679 183.638C141.058 176.417 155.414 172.68 172.04 172.68V152.68ZM118.601 166.362C102.796 175.582 90.5072 188.755 81.765 205.592L99.515 214.808C106.613 201.138 116.324 190.845 128.679 183.638L118.601 166.362ZM81.765 205.592C72.9954 222.482 68.76 241.708 68.76 263H88.76C88.76 244.399 92.4446 228.425 99.515 214.808L81.765 205.592ZM68.76 263C68.76 284.827 72.975 304.359 81.765 321.288L99.515 312.072C92.465 298.494 88.76 282.24 88.76 263H68.76ZM81.8353 321.421C90.8925 338.242 103.483 351.376 119.559 360.562L129.481 343.198C116.81 335.957 106.814 325.625 99.4447 311.939L81.8353 321.421ZM119.559 360.562C135.659 369.763 154.141 374.2 174.68 374.2V354.2C157.086 354.2 142.127 350.424 129.481 343.198L119.559 360.562ZM174.68 374.2C199.959 374.2 221.571 367.527 238.677 353.439L225.963 338.001C213.149 348.553 196.335 354.2 174.68 354.2V374.2ZM238.766 353.365C255.701 339.086 266.512 319.522 271.586 295.42L252.015 291.3C247.702 311.785 238.859 327.127 225.874 338.075L238.766 353.365ZM261.8 283.36H156.2V303.36H261.8V283.36ZM166.2 293.36V246.28H146.2V293.36H166.2ZM156.2 256.28H322.52V236.28H156.2V256.28ZM312.52 246.28V299.96H332.52V246.28H312.52ZM312.699 298.077C308.886 317.957 300.723 336.374 288.089 353.402L304.151 365.318C318.504 345.973 327.94 324.79 332.341 301.843L312.699 298.077ZM288.089 353.402C275.557 370.292 259.303 383.995 239.143 394.49L248.377 412.23C271.044 400.431 289.696 384.801 304.151 365.318L288.089 353.402ZM239.189 394.466C219.635 404.514 197.471 409.64 172.48 409.64V429.64C200.29 429.64 225.645 423.912 248.331 412.254L239.189 394.466ZM172.48 409.64C144.397 409.64 119.233 403.4 96.771 391.073L87.149 408.607C112.793 422.68 141.309 429.64 172.48 429.64V409.64ZM96.8983 391.144C74.6879 378.531 57.1917 361.177 44.2894 338.941L26.9906 348.979C41.6617 374.263 61.7121 394.162 87.0218 408.536L96.8983 391.144ZM44.3356 339.022C31.7853 316.922 25.4 291.67 25.4 263H5.4C5.4 294.757 12.5081 323.478 26.9444 348.898L44.3356 339.022ZM25.4 263C25.4 234.33 31.7853 209.078 44.3356 186.978L26.9444 177.102C12.5081 202.522 5.4 231.243 5.4 263H25.4ZM44.3159 187.013C57.2156 164.507 74.6824 147.198 96.8164 134.902L87.1036 117.418C61.7176 131.522 41.6377 151.466 26.9641 177.067L44.3159 187.013ZM96.8525 134.881C119.316 122.28 144.307 115.92 172.04 115.92V95.92C141.106 95.92 112.71 103.053 87.0675 117.439L96.8525 134.881ZM172.04 115.92C204.941 115.92 233.021 123.979 256.693 139.76L267.787 123.119C240.419 104.874 208.365 95.92 172.04 95.92V115.92ZM256.76 139.805C280.256 155.198 296.487 176.875 305.508 205.304L324.572 199.256C314.233 166.672 295.264 141.122 267.72 123.075L256.76 139.805ZM315.04 192.28H244.2V212.28H315.04V192.28ZM526.494 417L517.792 421.927L520.665 427H526.494V417ZM458.734 297.32L467.436 292.393L464.564 287.32H458.734V297.32ZM429.694 297.32V287.32H419.694V297.32H429.694ZM429.694 417V427H439.694V417H429.694ZM368.094 417H358.094V427H368.094V417ZM368.094 109.88V99.88H358.094V109.88H368.094ZM544.094 122.64L539.56 131.553L539.622 131.585L539.685 131.616L544.094 122.64ZM581.494 156.52L572.812 161.481L572.872 161.587L572.935 161.691L581.494 156.52ZM576.654 259.04L584.742 264.922L584.767 264.887L584.792 264.852L576.654 259.04ZM524.294 292.48L521.725 282.816L508.979 286.204L515.682 297.562L524.294 292.48ZM597.774 417V427H615.287L606.387 411.918L597.774 417ZM429.694 251.12H419.694V261.12H429.694V251.12ZM518.574 239.24L525.516 246.438L525.581 246.375L525.645 246.311L518.574 239.24ZM518.574 172.8L511.633 179.998L511.701 180.064L511.77 180.128L518.574 172.8ZM429.694 160.92V150.92H419.694V160.92H429.694ZM535.196 412.073L467.436 292.393L450.032 302.247L517.792 421.927L535.196 412.073ZM458.734 287.32H429.694V307.32H458.734V287.32ZM419.694 297.32V417H439.694V297.32H419.694ZM429.694 407H368.094V427H429.694V407ZM378.094 417V109.88H358.094V417H378.094ZM368.094 119.88H483.374V99.88H368.094V119.88ZM483.374 119.88C505.967 119.88 524.569 123.926 539.56 131.553L548.629 113.727C530.18 104.341 508.301 99.88 483.374 99.88V119.88ZM539.685 131.616C554.845 139.062 565.711 149.055 572.812 161.481L590.177 151.559C580.851 135.238 566.784 122.644 548.503 113.664L539.685 131.616ZM572.935 161.691C580.433 174.101 584.254 188.13 584.254 204.04H604.254C604.254 184.75 599.569 167.099 590.054 151.349L572.935 161.691ZM584.254 204.04C584.254 222.202 579.036 238.502 568.517 253.228L584.792 264.852C597.74 246.725 604.254 226.358 604.254 204.04H584.254ZM568.567 253.158C558.443 267.079 543.145 277.122 521.725 282.816L526.863 302.144C551.791 295.518 571.399 283.267 584.742 264.922L568.567 253.158ZM515.682 297.562L589.162 422.082L606.387 411.918L532.907 287.398L515.682 297.562ZM597.774 407H526.494V427H597.774V407ZM429.694 261.12H481.174V241.12H429.694V261.12ZM481.174 261.12C499.288 261.12 514.726 256.842 525.516 246.438L511.633 232.042C505.996 237.478 496.5 241.12 481.174 241.12V261.12ZM525.645 246.311C536.159 235.798 540.894 221.718 540.894 205.36H520.894C520.894 217.749 517.417 226.255 511.503 232.169L525.645 246.311ZM540.894 205.36C540.894 189.26 536.127 175.453 525.379 165.472L511.77 180.128C517.448 185.401 520.894 193.3 520.894 205.36H540.894ZM525.516 165.602C514.726 155.198 499.288 150.92 481.174 150.92V170.92C496.5 170.92 505.996 174.562 511.633 179.998L525.516 165.602ZM481.174 150.92H429.694V170.92H481.174V150.92ZM419.694 160.92V251.12H439.694V160.92H419.694ZM711.569 109.88H721.569V99.88H711.569V109.88ZM711.569 417V427H721.569V417H711.569ZM649.969 417H639.969V427H649.969V417ZM649.969 109.88V99.88H639.969V109.88H649.969ZM701.569 109.88V417H721.569V109.88H701.569ZM711.569 407H649.969V427H711.569V407ZM659.969 417V109.88H639.969V417H659.969ZM649.969 119.88H711.569V99.88H649.969V119.88Z" fill="black" mask="url(#path-1-outside-1_715_17665)"/>
<mask id="path-3-outside-2_715_17665" maskUnits="userSpaceOnUse" x="1106" y="99" width="627" height="328" fill="black">
<rect fill="white" x="1106" y="99" width="627" height="328"/>
<path d="M1177.96 109.88V417H1116.36V109.88H1177.96ZM1428.46 109.88V159.6H1300.42V238.36H1398.54V287.2H1300.42V417H1238.82V109.88H1428.46ZM1716.34 109.88L1612.5 310.08V417H1550.9V310.08L1446.62 109.88H1516.14L1582.14 250.24L1647.7 109.88H1716.34Z"/>
</mask>
<path d="M1177.96 109.88V417H1116.36V109.88H1177.96ZM1428.46 109.88V159.6H1300.42V238.36H1398.54V287.2H1300.42V417H1238.82V109.88H1428.46ZM1716.34 109.88L1612.5 310.08V417H1550.9V310.08L1446.62 109.88H1516.14L1582.14 250.24L1647.7 109.88H1716.34Z" fill="#3B3B3B"/>
<path d="M1177.96 109.88H1187.96V99.88H1177.96V109.88ZM1177.96 417V427H1187.96V417H1177.96ZM1116.36 417H1106.36V427H1116.36V417ZM1116.36 109.88V99.88H1106.36V109.88H1116.36ZM1167.96 109.88V417H1187.96V109.88H1167.96ZM1177.96 407H1116.36V427H1177.96V407ZM1126.36 417V109.88H1106.36V417H1126.36ZM1116.36 119.88H1177.96V99.88H1116.36V119.88ZM1428.46 109.88H1438.46V99.88H1428.46V109.88ZM1428.46 159.6V169.6H1438.46V159.6H1428.46ZM1300.42 159.6V149.6H1290.42V159.6H1300.42ZM1300.42 238.36H1290.42V248.36H1300.42V238.36ZM1398.54 238.36H1408.54V228.36H1398.54V238.36ZM1398.54 287.2V297.2H1408.54V287.2H1398.54ZM1300.42 287.2V277.2H1290.42V287.2H1300.42ZM1300.42 417V427H1310.42V417H1300.42ZM1238.82 417H1228.82V427H1238.82V417ZM1238.82 109.88V99.88H1228.82V109.88H1238.82ZM1418.46 109.88V159.6H1438.46V109.88H1418.46ZM1428.46 149.6H1300.42V169.6H1428.46V149.6ZM1290.42 159.6V238.36H1310.42V159.6H1290.42ZM1300.42 248.36H1398.54V228.36H1300.42V248.36ZM1388.54 238.36V287.2H1408.54V238.36H1388.54ZM1398.54 277.2H1300.42V297.2H1398.54V277.2ZM1290.42 287.2V417H1310.42V287.2H1290.42ZM1300.42 407H1238.82V427H1300.42V407ZM1248.82 417V109.88H1228.82V417H1248.82ZM1238.82 119.88H1428.46V99.88H1238.82V119.88ZM1716.34 109.88L1725.22 114.484L1732.79 99.88H1716.34V109.88ZM1612.5 310.08L1603.62 305.476L1602.5 307.641V310.08H1612.5ZM1612.5 417V427H1622.5V417H1612.5ZM1550.9 417H1540.9V427H1550.9V417ZM1550.9 310.08H1560.9V307.632L1559.77 305.46L1550.9 310.08ZM1446.62 109.88V99.88H1430.14L1437.75 114.5L1446.62 109.88ZM1516.14 109.88L1525.19 105.625L1522.49 99.88H1516.14V109.88ZM1582.14 250.24L1573.09 254.495L1582.17 273.805L1591.2 254.472L1582.14 250.24ZM1647.7 109.88V99.88H1641.34L1638.64 105.648L1647.7 109.88ZM1707.46 105.276L1603.62 305.476L1621.38 314.684L1725.22 114.484L1707.46 105.276ZM1602.5 310.08V417H1622.5V310.08H1602.5ZM1612.5 407H1550.9V427H1612.5V407ZM1560.9 417V310.08H1540.9V417H1560.9ZM1559.77 305.46L1455.49 105.26L1437.75 114.5L1542.03 314.7L1559.77 305.46ZM1446.62 119.88H1516.14V99.88H1446.62V119.88ZM1507.09 114.135L1573.09 254.495L1591.19 245.985L1525.19 105.625L1507.09 114.135ZM1591.2 254.472L1656.76 114.112L1638.64 105.648L1573.08 246.008L1591.2 254.472ZM1647.7 119.88H1716.34V99.88H1647.7V119.88Z" fill="black" mask="url(#path-3-outside-2_715_17665)"/>
<path d="M880.667 301.99C884.574 303.377 888.123 305.618 891.055 308.549C893.987 311.481 896.229 315.028 897.616 318.935H1076.24C1085.28 293.615 1088.1 266.492 1084.45 239.855C1080.81 213.218 1070.8 187.849 1055.29 165.89C1039.77 143.931 1019.2 126.026 995.301 113.688C971.407 101.35 944.893 94.9404 918 95.0004H880.667V301.99Z" fill="#DC3545"/>
<path d="M844.939 318.935C846.332 315.032 848.573 311.488 851.501 308.557C854.429 305.627 857.97 303.384 861.869 301.99V95H805.934C791.1 95 776.873 100.898 766.383 111.397C755.893 121.896 750 136.136 750 150.984V318.935H844.939Z" fill="#387FF7"/>
<path d="M897.624 337.667C896.24 341.576 893.999 345.127 891.065 348.06C888.131 350.992 884.578 353.232 880.667 354.616V431H918.018C949.299 430.989 979.954 422.245 1006.53 405.755C1033.11 389.264 1054.55 365.682 1068.43 337.667H897.624Z" fill="#FFC107"/>
<path d="M861.869 354.616C857.966 353.229 854.421 350.987 851.492 348.055C848.564 345.123 846.325 341.574 844.939 337.667H750V375C750 389.852 755.893 404.096 766.383 414.598C776.873 425.1 791.1 431 805.934 431H861.869V354.616Z" fill="#8BBF1B"/>
<path d="M918 100L918.011 100C944.103 99.9421 969.825 106.16 993.007 118.13C1016.19 130.101 1036.15 147.471 1051.2 168.775C1066.26 190.079 1075.96 214.691 1079.5 240.533C1082.88 265.215 1080.54 290.328 1072.67 313.935H900.936C899.338 310.635 897.195 307.618 894.59 305.013C891.985 302.409 888.968 300.267 885.667 298.669V100L918 100ZM847.964 305.023C845.364 307.626 843.223 310.64 841.623 313.935H755V150.984C755 137.461 760.368 124.492 769.92 114.931C779.472 105.37 792.427 100 805.934 100H856.869V298.676C853.575 300.278 850.564 302.421 847.964 305.023ZM894.599 351.596C897.207 348.99 899.35 345.97 900.947 342.667H1060.14C1046.7 366.683 1027.36 386.944 1003.89 401.506C978.11 417.506 948.367 425.989 918.018 426C918.018 426 918.017 426 918.016 426H885.667V357.941C888.971 356.344 891.992 354.202 894.599 351.596ZM847.955 351.588C850.557 354.193 853.571 356.337 856.869 357.935V426H805.934C792.428 426 779.473 420.629 769.921 411.065C760.368 401.501 755 388.528 755 375V342.667H841.617C843.213 345.966 845.353 348.984 847.955 351.588Z" stroke="black" stroke-width="10"/>
</svg>
