<svg width="336" height="336" viewBox="0 0 336 336" fill="none" xmlns="http://www.w3.org/2000/svg">
<path d="M130.667 206.99C134.574 208.377 138.123 210.618 141.055 213.549C143.987 216.481 146.229 220.028 147.616 223.935H326.237C335.282 198.615 338.1 171.492 334.453 144.855C330.806 118.218 320.803 92.849 305.286 70.89C289.769 48.9309 269.195 31.0259 245.301 18.6878C221.407 6.34971 194.893 -0.0596347 168 0.000418139H130.667V206.99Z" fill="#DC3545"/>
<path d="M94.9393 223.935C96.3321 220.032 98.5733 216.488 101.501 213.557C104.429 210.627 107.97 208.384 111.869 206.99V0H55.9343C41.0996 0 26.8727 5.89794 16.383 16.3969C5.8933 26.8959 0 41.1359 0 55.9837V223.935H94.9393Z" fill="#387FF7"/>
<path d="M147.624 242.667C146.24 246.576 143.999 250.127 141.065 253.06C138.131 255.992 134.578 258.232 130.667 259.616V336H168.018C199.299 335.989 229.954 327.245 256.53 310.755C283.106 294.264 304.545 270.682 318.432 242.667H147.624Z" fill="#FFC107"/>
<path d="M111.869 259.616C107.966 258.229 104.421 255.987 101.492 253.055C98.5638 250.123 96.3251 246.574 94.9393 242.667H0V280C0 294.852 5.8933 309.096 16.383 319.598C26.8727 330.1 41.0996 336 55.9343 336H111.869V259.616Z" fill="#8BBF1B"/>
<path d="M168 5.00043L168.011 5.00041C194.103 4.94214 219.825 11.1604 243.007 23.1305C266.188 35.1006 286.148 52.4715 301.202 73.7754C316.256 95.0792 325.961 119.691 329.499 145.533C332.878 170.215 330.536 195.328 322.674 218.935H150.936C149.338 215.635 147.195 212.618 144.59 210.013C141.985 207.409 138.968 205.267 135.667 203.669V5.00042L168 5.00043ZM97.9639 210.023C95.3635 212.626 93.2228 215.64 91.6233 218.935H5V55.9837C5 42.4606 10.3676 29.4919 19.9201 19.9309C29.4724 10.3701 42.427 5 55.9343 5H106.869V203.676C103.575 205.278 100.564 207.421 97.9639 210.023ZM144.599 256.596C147.207 253.99 149.35 250.97 150.947 247.667H310.145C296.701 271.683 277.362 291.944 253.894 306.506C228.11 322.506 198.367 330.989 168.018 331C168.018 331 168.017 331 168.016 331H135.667V262.941C138.971 261.344 141.992 259.202 144.599 256.596ZM97.9548 256.588C100.557 259.193 103.571 261.337 106.869 262.935V331H55.9343C42.4275 331 29.4731 325.629 19.9206 316.065C10.3679 306.501 5 293.528 5 280V247.667H91.6172C93.2132 250.966 95.3531 253.984 97.9548 256.588Z" stroke="black" stroke-width="10"/>
</svg>
